<?xml version="1.0" encoding="UTF-8"?>
<svg id="Layer_1" xmlns="http://www.w3.org/2000/svg" version="1.1" xmlns:xlink="http://www.w3.org/1999/xlink" viewBox="0 0 24 24">
  <!-- Generator: Adobe Illustrator 29.1.0, SVG Export Plug-In . SVG Version: 2.1.0 Build 142)  -->
  <defs>
    <style>
      .st0 {
        fill: #fff;
      }

      .st1 {
        fill: none;
      }

      .st2 {
        fill: url(#linear-gradient);
      }
    </style>
    <linearGradient id="linear-gradient" x1="12" y1="0" x2="12" y2="24" gradientUnits="userSpaceOnUse">
      <stop offset="0" stop-color="#a266b0"/>
      <stop offset="1" stop-color="#bf6aab"/>
    </linearGradient>
  </defs>
  <rect class="st2" width="24" height="24"/>
  <path class="st1" d="M0,0h24v24H0V0ZM14,21.5c-.6.2-1.3.4-2,.5.7-.1,1.3-.3,2-.5ZM12,22c-.7-.1-1.3-.3-2-.5.6.2,1.3.4,2,.5Z"/>
  <path class="st0" d="M15.1,9.9c-.2-2.5-1.2-4.9-3.1-6.8-1.9,1.9-3,4.4-3.2,6.8,1.1.6,2.2,1.4,3.1,2.4.9-1,2-1.7,3.1-2.4ZM9.3,12.3c-.1,0-.3-.2-.4-.3.1,0,.3.2.4.3ZM15.1,12c-.1,0-.2.1-.4.2.1,0,.2-.2.4-.2ZM12,15.1c-1.9-2.9-5.2-4.9-9-4.9,0,4.8,3,8.8,7.2,10.3.6.2,1.2.4,1.8.5.6-.1,1.2-.3,1.8-.5,4.2-1.5,7.2-5.5,7.2-10.3-3.8,0-7,1.9-9,4.9Z"/>
</svg>